<svg xmlns="http://www.w3.org/2000/svg" xmlns:xlink="http://www.w3.org/1999/xlink" width="100" height="100" viewBox="0 0 100 100"><rect width="100%" height="100%" fill="#b36ae2"></rect><g transform="translate(50 50) scale(0.69 0.69) rotate(0) translate(-50 -50)" style="fill:#ffffff"><svg fill="#ffffff" xmlns:dc="http://purl.org/dc/elements/1.1/" xmlns:cc="http://creativecommons.org/ns#" xmlns:rdf="http://www.w3.org/1999/02/22-rdf-syntax-ns#" xmlns:svg="http://www.w3.org/2000/svg" xmlns="http://www.w3.org/2000/svg" xmlns:sodipodi="http://sodipodi.sourceforge.net/DTD/sodipodi-0.dtd" xmlns:inkscape="http://www.inkscape.org/namespaces/inkscape" version="1.1" x="0px" y="0px" viewBox="0 0 100 100"><g transform="translate(0,-952.36218)"><path style="font-size:medium;font-style:normal;font-variant:normal;font-weight:normal;font-stretch:normal;text-indent:0;text-align:start;text-decoration:none;line-height:normal;letter-spacing:normal;word-spacing:normal;text-transform:none;direction:ltr;block-progression:tb;writing-mode:lr-tb;text-anchor:start;baseline-shift:baseline;opacity:1;color:#000000;fill:#ffffff;fill-opacity:1;fill-rule:nonzero;stroke:none;stroke-width:4;marker:none;visibility:visible;display:inline;overflow:visible;enable-background:accumulate;font-family:Sans;-inkscape-font-specification:Sans" d="M 17 6 C 10.940593 6 6 10.94059 6 17 L 6 83 C 6 89.0594 10.940593 94 17 94 L 83 94 C 89.059407 94 94 89.0594 94 83 L 94 17 C 94 10.94059 89.059407 6 83 6 L 17 6 z M 17 10 L 83 10 C 86.912597 10 90 13.08739 90 17 L 90 83 C 90 86.9126 86.912597 90 83 90 L 17 90 C 13.087403 90 10 86.9126 10 83 L 10 17 C 10 13.08739 13.087403 10 17 10 z M 38 16 C 25.113427 16 15 26.33205 15 39.03125 L 15 62 C 15 74.6993 25.116752 85 38 85 L 62 85 C 74.886561 85 85.000001 74.66805 85 61.96875 L 85 47 C 85 46.43117 85.02409 44.99438 84.1875 43.5625 C 83.350913 42.13062 81.466139 41 79 41 L 75 41 C 73.793778 41 73.531583 40.73651 73.34375 40.5 C 73.155917 40.26349 73 39.74807 73 39.03125 C 73.000002 26.33091 62.886572 16 50 16 L 38 16 z M 38 20 L 50 20 C 60.772274 20 69.000002 28.43111 69 39.03125 C 69 40.26553 69.217282 41.70774 70.21875 42.96875 C 71.220218 44.22976 72.963425 45 75 45 L 79 45 C 80.475513 45 80.574577 45.2935 80.75 45.59375 C 80.925423 45.894 81 46.49736 81 47 L 81 61.96875 C 81.000001 72.57015 72.772285 81 62 81 L 38 81 C 27.2244 81 19 72.6015 19 62 L 19 39.03125 C 19 28.42997 27.227725 20 38 20 z M 38 31 C 34.442249 31 32 34.37129 32 38 C 32 41.62872 34.442255 45 38 45 L 50 45 C 53.557745 45 56 41.62872 56 38 C 56 34.37129 53.557751 31 50 31 L 38 31 z M 38 35 L 50 35 C 50.874249 35 52 36.08875 52 38 C 52 39.91126 50.874255 41 50 41 L 38 41 C 37.125745 41 36 39.91126 36 38 C 36 36.08875 37.125751 35 38 35 z M 39 56 C 35.491293 56 33 59.3022 33 63 C 33 66.6978 35.491293 70 39 70 L 61 70 C 64.508707 70 67 66.6929 67 63 C 67 59.3071 64.508707 56 61 56 L 39 56 z M 39 60 L 61 60 C 61.646291 60 63 61.1529 63 63 C 63 64.8471 61.646291 66 61 66 L 39 66 C 38.353707 66 37 64.8422 37 63 C 37 61.1578 38.353707 60 39 60 z " transform="translate(0,952.36218)"></path></g></svg></g></svg>