<svg xmlns="http://www.w3.org/2000/svg" xmlns:xlink="http://www.w3.org/1999/xlink" width="100" height="100" viewBox="0 0 100 100"><rect width="100%" height="100%" fill="#FFFFFF"></rect><g transform="translate(50 50) scale(0.69 0.69) rotate(0) translate(-50 -50)" style="fill:#b36ae2"><svg fill="#b36ae2" xmlns:dc="http://purl.org/dc/elements/1.1/" xmlns:cc="http://creativecommons.org/ns#" xmlns:rdf="http://www.w3.org/1999/02/22-rdf-syntax-ns#" xmlns:svg="http://www.w3.org/2000/svg" xmlns="http://www.w3.org/2000/svg" xmlns:sodipodi="http://sodipodi.sourceforge.net/DTD/sodipodi-0.dtd" xmlns:inkscape="http://www.inkscape.org/namespaces/inkscape" viewBox="0 0 100 100" version="1.1" x="0px" y="0px"><g transform="translate(0,-952.36216)"><g transform="matrix(0.33505771,0,0,0.33527783,50.658122,1003.0189)"><path d="M -86.647863,76.254327 7.6827005,107.31652" style="" stroke="#b36ae2" stroke-width="8.95072556" stroke-linecap="round"></path><path d="M -86.647863,76.254327 -64.813375,-8.3632853" style="" stroke="#b36ae2" stroke-width="8.95072556" stroke-linecap="round"></path><path d="M -86.647863,76.254327 -115.27427,63.877065" style="" stroke="#b36ae2" stroke-width="8.95072556" stroke-linecap="round"></path><path d="m -86.647863,76.254327 45.101677,51.466423" style="" stroke="#b36ae2" stroke-width="8.95072556" stroke-linecap="round"></path><path d="M -86.647863,76.254327 -127.92438,-10.11033" style="" stroke="#b36ae2" stroke-width="8.95072556" stroke-linecap="round"></path><path d="M 29.517188,22.698905 7.6827005,107.31652" style="" stroke="#b36ae2" stroke-width="8.95072556" stroke-linecap="round"></path><path d="M 29.517188,22.698905 -64.813375,-8.3632853" style="" stroke="#b36ae2" stroke-width="8.95072556" stroke-linecap="round"></path><path d="M 29.517188,22.698905 98.386569,-34.626714" style="" stroke="#b36ae2" stroke-width="8.95072556" stroke-linecap="round"></path><path d="M 29.517188,22.698905 10.484866,-73.920967" style="" stroke="#b36ae2" stroke-width="8.95072556" stroke-linecap="round"></path><path d="m 29.517188,22.698905 67.345874,41.21121" style="" stroke="#b36ae2" stroke-width="8.95072556" stroke-linecap="round"></path><path d="M 7.6827005,107.31652 58.226687,121.00934" style="" stroke="#b36ae2" stroke-width="8.95072556" stroke-linecap="round"></path><path d="M 7.6827005,107.31652 -41.546186,127.72075" style="" stroke="#b36ae2" stroke-width="8.95072556" stroke-linecap="round"></path><path d="M 7.6827005,107.31652 96.863062,63.910115" style="" stroke="#b36ae2" stroke-width="8.95072556" stroke-linecap="round"></path><path d="M -64.813375,-8.3632853 -75.114386,-91.758988" style="" stroke="#b36ae2" stroke-width="8.95072556" stroke-linecap="round"></path><path d="M -64.813375,-8.3632853 10.484866,-73.920967" style="" stroke="#b36ae2" stroke-width="8.95072556" stroke-linecap="round"></path><path d="M -64.813375,-8.3632853 -127.92438,-10.11033" style="" stroke="#b36ae2" stroke-width="8.95072556" stroke-linecap="round"></path><path d="M 90.566667,-15.491101 -0.47489595,4.4444813" style="" stroke="#b36ae2" stroke-width="8.95072556" stroke-linecap="round"></path><path d="M 90.566667,-15.491101 57.605571,-103.39771" style="" stroke="#b36ae2" stroke-width="8.95072556" stroke-linecap="round"></path><path d="M 90.566667,-15.491101 122.48207,47.883933" style="" stroke="#b36ae2" stroke-width="8.95072556" stroke-linecap="round"></path><path d="M 90.566667,-15.491101 54.803406,77.839771" style="" stroke="#b36ae2" stroke-width="8.95072556" stroke-linecap="round"></path><path d="M 90.566667,-15.491101 124.00558,-50.652896" style="" stroke="#b36ae2" stroke-width="8.95072556" stroke-linecap="round"></path><path d="M -33.435992,-83.462131 -0.47489595,4.4444813" style="" stroke="#b36ae2" stroke-width="8.95072556" stroke-linecap="round"></path><path d="M -33.435992,-83.462131 57.605571,-103.39771" style="" stroke="#b36ae2" stroke-width="8.95072556" stroke-linecap="round"></path><path d="m -33.435992,-83.462131 -72.158378,6.327846" style="" stroke="#b36ae2" stroke-width="8.95072556" stroke-linecap="round"></path><path d="m -33.435992,-83.462131 9.693907,-48.177429" style="" stroke="#b36ae2" stroke-width="8.95072556" stroke-linecap="round"></path><path d="M -33.435992,-83.462131 -92.944258,-3.1468891" style="" stroke="#b36ae2" stroke-width="8.95072556" stroke-linecap="round"></path><path d="M -0.47489595,4.4444813 -44.969468,84.551183" style="" stroke="#b36ae2" stroke-width="8.95072556" stroke-linecap="round"></path><path d="M -0.47489595,4.4444813 54.803406,77.839771" style="" stroke="#b36ae2" stroke-width="8.95072556" stroke-linecap="round"></path><path d="M -0.47489595,4.4444813 -92.944258,-3.1468891" style="" stroke="#b36ae2" stroke-width="8.95072556" stroke-linecap="round"></path><path d="m 57.605571,-103.39771 4.251596,-10.40382" style="" stroke="#b36ae2" stroke-width="8.95072556" stroke-linecap="round"></path><path d="m 57.605571,-103.39771 -81.347656,-28.24185" style="" stroke="#b36ae2" stroke-width="8.95072556" stroke-linecap="round"></path><path d="m 57.605571,-103.39771 66.400009,52.744814" style="" stroke="#b36ae2" stroke-width="8.95072556" stroke-linecap="round"></path><path d="M 58.226687,121.00934 122.48207,47.883933" style="" stroke="#b36ae2" stroke-width="8.95072556" stroke-linecap="round"></path><path d="m 58.226687,121.00934 -99.772873,6.71141" style="" stroke="#b36ae2" stroke-width="8.95072556" stroke-linecap="round"></path><path d="M 58.226687,121.00934 96.863062,63.910115" style="" stroke="#b36ae2" stroke-width="8.95072556" stroke-linecap="round"></path><path d="M 58.226687,121.00934 54.803406,77.839771" style="" stroke="#b36ae2" stroke-width="8.95072556" stroke-linecap="round"></path><path d="m -75.114386,-91.758988 -30.479984,14.624703" style="" stroke="#b36ae2" stroke-width="8.95072556" stroke-linecap="round"></path><path d="m -75.114386,-91.758988 85.599252,17.838021" style="" stroke="#b36ae2" stroke-width="8.95072556" stroke-linecap="round"></path><path d="M -75.114386,-91.758988 -127.92438,-10.11033" style="" stroke="#b36ae2" stroke-width="8.95072556" stroke-linecap="round"></path><path d="m -75.114386,-91.758988 51.372301,-39.880572" style="" stroke="#b36ae2" stroke-width="8.95072556" stroke-linecap="round"></path><path d="m -115.27427,63.877065 70.304802,20.674118" style="" stroke="#b36ae2" stroke-width="8.95072556" stroke-linecap="round"></path><path d="m -115.27427,63.877065 73.728084,63.843685" style="" stroke="#b36ae2" stroke-width="8.95072556" stroke-linecap="round"></path><path d="M -115.27427,63.877065 -127.92438,-10.11033" style="" stroke="#b36ae2" stroke-width="8.95072556" stroke-linecap="round"></path><path d="M -115.27427,63.877065 -92.944258,-3.1468891" style="" stroke="#b36ae2" stroke-width="8.95072556" stroke-linecap="round"></path><path d="M 98.386569,-34.626714 61.857167,-113.80153" style="" stroke="#b36ae2" stroke-width="8.95072556" stroke-linecap="round"></path><path d="M 98.386569,-34.626714 10.484866,-73.920967" style="" stroke="#b36ae2" stroke-width="8.95072556" stroke-linecap="round"></path><path d="M 98.386569,-34.626714 96.863062,63.910115" style="" stroke="#b36ae2" stroke-width="8.95072556" stroke-linecap="round"></path><path d="M 98.386569,-34.626714 124.00558,-50.652896" style="" stroke="#b36ae2" stroke-width="8.95072556" stroke-linecap="round"></path><path d="m -44.969468,84.551183 3.423282,43.169567" style="" stroke="#b36ae2" stroke-width="8.95072556" stroke-linecap="round"></path><path d="M -44.969468,84.551183 54.803406,77.839771" style="" stroke="#b36ae2" stroke-width="8.95072556" stroke-linecap="round"></path><path d="M -44.969468,84.551183 -92.944258,-3.1468891" style="" stroke="#b36ae2" stroke-width="8.95072556" stroke-linecap="round"></path><path d="M 61.857167,-113.80153 10.484866,-73.920967" style="" stroke="#b36ae2" stroke-width="8.95072556" stroke-linecap="round"></path><path d="m 61.857167,-113.80153 -85.599252,-17.83803" style="" stroke="#b36ae2" stroke-width="8.95072556" stroke-linecap="round"></path><path d="m 61.857167,-113.80153 62.148413,63.148634" style="" stroke="#b36ae2" stroke-width="8.95072556" stroke-linecap="round"></path><path d="M 122.48207,47.883933 96.863062,63.910115" style="" stroke="#b36ae2" stroke-width="8.95072556" stroke-linecap="round"></path><path d="M 122.48207,47.883933 54.803406,77.839771" style="" stroke="#b36ae2" stroke-width="8.95072556" stroke-linecap="round"></path><path d="m 122.48207,47.883933 1.52351,-98.536829" style="" stroke="#b36ae2" stroke-width="8.95072556" stroke-linecap="round"></path><path d="m -105.59437,-77.134285 -22.33001,67.023955" style="" stroke="#b36ae2" stroke-width="8.95072556" stroke-linecap="round"></path><path d="m -105.59437,-77.134285 81.852285,-54.505275" style="" stroke="#b36ae2" stroke-width="8.95072556" stroke-linecap="round"></path><path d="m -105.59437,-77.134285 12.650112,73.9873959" style="" stroke="#b36ae2" stroke-width="8.95072556" stroke-linecap="round"></path></g></g></svg></g></svg>