<svg xmlns="http://www.w3.org/2000/svg" xmlns:xlink="http://www.w3.org/1999/xlink" width="100" height="100" viewBox="0 0 100 100"><rect width="100%" height="100%" fill="#FFFFFF"></rect><g transform="translate(50 50) scale(0.69 0.69) rotate(0) translate(-50 -50)" style="fill:#b36ae2"><svg fill="#b36ae2" xmlns="http://www.w3.org/2000/svg" xmlns:xlink="http://www.w3.org/1999/xlink" version="1.1" x="0px" y="0px" viewBox="0 0 100 100" enable-background="new 0 0 100 100" xml:space="preserve"><path fill="#b36ae2" d="M81.416,41.144l-5.59-4.773v-7.25h-9.5l-14.038-11.25c-1.468-1.181-3.768-1.172-5.229,0.025L33.337,29.12  h-9.71v7.68l-5.052,4.342c-1.192,1.023-2.057,2.908-2.057,4.479v33.67c0,2.05,1.668,3.719,3.718,3.719h59.528  c2.049,0,3.719-1.669,3.719-3.717v-33.67C83.482,44.048,82.613,42.164,81.416,41.144z M75.826,41.257l3.068,2.622l-3.068,2.407  V41.257z M49.411,20.772c0.113-0.09,0.437-0.094,0.551-0.002l10.421,8.35H39.208L49.411,20.772z M27.345,32.837h44.762v16.364  L58.562,59.82l-4.78-3.748h6.306v-1.859h-8.677l-1.76-1.38l-1.15,0.937c-0.934,0.76-1.91,1.555-2.909,2.367V45.469H29.791v5.312  c-0.862-0.688-1.683-1.343-2.446-1.953V32.837z M43.592,47.469v10.293c-0.745,0.604-1.499,1.217-2.259,1.834l-0.404,0.09  c-1.074-0.856-2.71-2.166-4.635-3.705c-1.613-1.289-3.105-2.482-4.502-3.6v-4.912H43.592z M23.627,41.702v4.164  c-0.991-0.789-1.828-1.452-2.52-1.999L23.627,41.702z M20.235,76.65V47.917h0.001c3.745,2.974,9.646,7.692,13.735,10.963  c1.908,1.526,3.232,2.587,4.151,3.321C31.081,67.913,24.037,73.611,20.235,76.65z M22.883,79.292  c6.875-5.497,22.081-17.854,26.813-21.702l27.678,21.702H22.883z M79.764,76.439L61.577,62.184l18.187-14.26V76.439z M48.433,48.448  h19.959v-2.963H48.433V48.448z M68.5,37.683H30.041V41.4H68.5V37.683z M48.469,52.072h16.656v-1.859H48.469V52.072z"></path></svg></g></svg>