<svg xmlns="http://www.w3.org/2000/svg" xmlns:xlink="http://www.w3.org/1999/xlink" width="100" height="100" viewBox="0 0 100 100"><rect width="100%" height="100%" fill="#FFFFFF"></rect><g transform="translate(50 50) scale(0.69 0.69) rotate(0) translate(-50 -50)" style="fill:#b36ae2"><svg fill="#b36ae2" xmlns="http://www.w3.org/2000/svg" xmlns:xlink="http://www.w3.org/1999/xlink" version="1.1" x="0px" y="0px" viewBox="0 0 100 100" enable-background="new 0 0 100 100" xml:space="preserve"><g><path fill="#b36ae2" d="M87.70703,51.54297l-37.75-37.75c-0.39062-0.39062-1.02344-0.39062-1.41406,0l-37.5,37.5   c-0.38867,0.38867-0.39062,1.01855-0.00488,1.40918l37.5,38c0.01691,0.01709,0.04071,0.02393,0.05865,0.03967   c0.04938,0.04358,0.10443,0.07642,0.16254,0.10999c0.05804,0.03345,0.11407,0.06384,0.17749,0.08496   c0.02466,0.0083,0.04297,0.02649,0.0686,0.03296c0.07831,0.01953,0.15698,0.02808,0.2345,0.02893   c0.00232,0,0.00439,0.00134,0.00671,0.00134c0.00146,0,0.00244,0,0.00342,0c0.00012,0,0.00024,0,0.00037,0   c0.00018,0,0.00043,0,0.00061,0c0.12372,0,0.24219-0.02759,0.35443-0.0708c0.03503-0.01343,0.06433-0.03516,0.09766-0.05249   c0.07495-0.03882,0.14484-0.08252,0.20801-0.13892c0.01392-0.01245,0.03265-0.01746,0.04596-0.03076l37.75-37.75   C88.09766,52.56641,88.09766,51.93359,87.70703,51.54297z M47.33807,17.82593L35.19458,63.83594L13.3963,51.76831   L47.33807,17.82593z M17.33337,56.23413l17.76123,9.83301l9.89423,18.19104L17.33337,56.23413z M50.953,86.88293   c-0.078-0.3595-0.34308-0.66528-0.724-0.76184c-0.53564-0.13281-1.0791,0.18945-1.21436,0.72461l-0.10846,0.42957   L37.32574,65.98352l46.38782-11.86121L50.953,86.88293z M58.21497,58.578l0.57263-2.26843   c0.13525-0.53613-0.18945-1.0791-0.7251-1.21484c-0.53418-0.13379-1.07861,0.18945-1.21436,0.72461l-0.73438,2.90918   c-0.03339,0.1322-0.03772,0.26465-0.01886,0.3916l-18.86005,4.82227l4.87305-18.46362l2.33496-0.58032   c0.53613-0.13379,0.8623-0.67578,0.72949-1.21191c-0.13379-0.53613-0.67822-0.8584-1.21191-0.72949l-1.27032,0.31567   l7.08276-26.83569l1.66455,1.66455c-0.08807,0.01733-0.17712,0.02954-0.26117,0.07227   c-0.49219,0.25-0.68896,0.85156-0.43896,1.34375l1.35791,2.67578c0.17627,0.34766,0.52783,0.54785,0.89258,0.54785   c0.15186,0,0.30664-0.03418,0.45166-0.1084c0.49219-0.25,0.68896-0.85156,0.43896-1.34375l-0.76929-1.51587L85.052,51.71606   L58.21497,58.578z"></path><path fill="#b36ae2" d="M59.33643,36.46094c0.17627,0.34766,0.52783,0.54785,0.89258,0.54785   c0.15186,0,0.30664-0.03418,0.45166-0.1084c0.49219-0.25,0.68896-0.85156,0.43896-1.34375l-1.35791-2.67578   c-0.24951-0.49219-0.85059-0.68945-1.34424-0.43945c-0.49219,0.25-0.68896,0.85156-0.43896,1.34375L59.33643,36.46094z"></path><path fill="#b36ae2" d="M54.88037,67.7002c0.08203,0.02051,0.16455,0.03027,0.24512,0.03027   c0.44727,0,0.85449-0.30176,0.96924-0.75488l0.73438-2.90918c0.13525-0.53613-0.18945-1.0791-0.7251-1.21484   c-0.53467-0.13184-1.07861,0.18945-1.21436,0.72461l-0.73438,2.90918C54.02002,67.02148,54.34473,67.56445,54.88037,67.7002z"></path><path fill="#b36ae2" d="M50.96387,83.21289c0.08203,0.02051,0.16406,0.03027,0.24561,0.03027   c0.44678,0,0.854-0.30176,0.96875-0.75488l0.73438-2.9082c0.13525-0.53613-0.18945-1.0791-0.7251-1.21484   c-0.5376-0.13379-1.07861,0.19043-1.21436,0.72461l-0.73438,2.9082C50.10352,82.53418,50.42822,83.07715,50.96387,83.21289z"></path><path fill="#b36ae2" d="M52.92188,75.45605c0.08203,0.02051,0.16406,0.03027,0.24561,0.03027   c0.44678,0,0.854-0.30176,0.96875-0.75488l0.73438-2.9082c0.13525-0.53613-0.18945-1.0791-0.7251-1.21484   c-0.53467-0.13379-1.07861,0.18945-1.21436,0.72461l-0.73438,2.9082C52.06152,74.77734,52.38623,75.32031,52.92188,75.45605z"></path><path fill="#b36ae2" d="M60.76465,40.30664l-0.73438,2.9082c-0.13525,0.53613,0.18945,1.0791,0.7251,1.21484   c0.08203,0.02051,0.16406,0.03027,0.24561,0.03027c0.44678,0,0.854-0.30176,0.96875-0.75488l0.73438-2.9082   c0.13525-0.53613-0.18945-1.0791-0.7251-1.21484C61.44922,39.4502,60.90039,39.77148,60.76465,40.30664z"></path><path fill="#b36ae2" d="M60.021,47.33887c-0.53418-0.13379-1.07861,0.18945-1.21436,0.72461l-0.73438,2.9082   c-0.13525,0.53613,0.18945,1.0791,0.7251,1.21484c0.08203,0.02051,0.16406,0.03027,0.24561,0.03027   c0.44678,0,0.854-0.30176,0.96875-0.75488l0.73438-2.9082C60.88135,48.01758,60.55664,47.47461,60.021,47.33887z"></path><path fill="#b36ae2" d="M55.71582,29.32715c0.17627,0.34766,0.52783,0.54785,0.89258,0.54785   c0.15186,0,0.30664-0.03418,0.45166-0.1084c0.49219-0.25,0.68896-0.85156,0.43896-1.34375l-1.35791-2.67578   c-0.24951-0.49219-0.85107-0.68848-1.34424-0.43945c-0.49219,0.25-0.68896,0.85156-0.43896,1.34375L55.71582,29.32715z"></path><path fill="#b36ae2" d="M63.91406,41.59863l2.67285,1.36328c0.14551,0.07422,0.30078,0.10938,0.45361,0.10938   c0.36426,0,0.71484-0.19922,0.8916-0.5459c0.25098-0.49219,0.05566-1.09375-0.43604-1.34473l-2.67285-1.36328   c-0.49365-0.25098-1.09521-0.05566-1.34521,0.43652C63.22705,40.74609,63.42236,41.34766,63.91406,41.59863z"></path><path fill="#b36ae2" d="M51.72314,41.02539L48.81201,41.75c-0.53564,0.13379-0.8623,0.67676-0.72852,1.21191   c0.11328,0.45508,0.521,0.75879,0.96924,0.75879c0.08008,0,0.16162-0.00977,0.24268-0.0293l2.91113-0.72461   c0.53564-0.13379,0.8623-0.67676,0.72852-1.21191C52.80225,41.21777,52.25781,40.89551,51.72314,41.02539z"></path><path fill="#b36ae2" d="M71.0415,45.2334l2.67236,1.3623c0.14551,0.07422,0.30029,0.10938,0.45312,0.10938   c0.36426,0,0.71533-0.19922,0.89209-0.5459c0.25049-0.49219,0.05518-1.09375-0.43701-1.34473l-2.67236-1.3623   c-0.49316-0.25195-1.09424-0.05566-1.34521,0.43652C70.354,44.38086,70.54932,44.98242,71.0415,45.2334z"></path><path fill="#b36ae2" d="M60.69922,39.82422c-0.1333-0.53613-0.67773-0.8584-1.21191-0.72949l-2.91162,0.72363   c-0.53613,0.13379-0.8623,0.67578-0.72949,1.21191c0.11328,0.45508,0.52148,0.75879,0.96973,0.75879   c0.08008,0,0.16113-0.00977,0.24219-0.0293l2.91162-0.72363C60.50586,40.90234,60.83203,40.36035,60.69922,39.82422z"></path><path fill="#b36ae2" d="M78.16748,48.86719l1.30908,0.66797c0.14551,0.07422,0.30078,0.10938,0.45361,0.10938   c0.36426,0,0.71484-0.19922,0.8916-0.5459c0.25098-0.49121,0.05566-1.09375-0.43604-1.34473l-1.30908-0.66797   c-0.4917-0.25098-1.09424-0.05566-1.34521,0.43652C77.48047,48.01367,77.67578,48.61621,78.16748,48.86719z"></path><path fill="#b36ae2" d="M28.43359,46.81934l-2.91162,0.72363c-0.53613,0.13379-0.8623,0.67578-0.72949,1.21191   c0.11328,0.45508,0.52148,0.75879,0.96973,0.75879c0.08008,0,0.16113-0.00977,0.24219-0.0293l2.91162-0.72363   c0.53613-0.13379,0.8623-0.67578,0.72949-1.21191C29.51172,47.0127,28.96631,46.69141,28.43359,46.81934z"></path><path fill="#b36ae2" d="M37.4082,45.61719c-0.1333-0.53711-0.67773-0.85938-1.21191-0.72949l-2.91113,0.72461   c-0.53564,0.13379-0.8623,0.67676-0.72852,1.21191c0.11279,0.45508,0.521,0.75879,0.96924,0.75879   c0.08008,0,0.16162-0.00977,0.24268-0.0293l2.91113-0.72461C37.21533,46.69531,37.54199,46.15234,37.4082,45.61719z"></path><path fill="#b36ae2" d="M20.66943,48.75l-2.91113,0.72461c-0.53564,0.13379-0.8623,0.67676-0.72852,1.21191   c0.11328,0.45508,0.521,0.75879,0.96924,0.75879c0.08008,0,0.16162-0.00977,0.24268-0.0293l2.91113-0.72461   c0.53564-0.13379,0.8623-0.67676,0.72852-1.21191C21.74756,48.94238,21.20264,48.62109,20.66943,48.75z"></path></g></svg></g></svg>