<svg xmlns="http://www.w3.org/2000/svg" xmlns:xlink="http://www.w3.org/1999/xlink" width="100" height="100" viewBox="0 0 100 100"><rect width="100%" height="100%" fill="#FFFFFF"></rect><g transform="translate(50 50) scale(0.69 0.69) rotate(0) translate(-50 -50)" style="fill:#b36ae2"><svg fill="#b36ae2" xmlns="http://www.w3.org/2000/svg" xmlns:xlink="http://www.w3.org/1999/xlink" version="1.1" x="0px" y="0px" viewBox="0 0 100 100" enable-background="new 0 0 100 100" xml:space="preserve"><g><path fill="#b36ae2" d="M49.65039,7.8457L9.93848,34.3208l12.98145,45.15381l32.63452,10.04102   c0.00134,0.00043,0.00269,0.00085,0.00409,0.00128l0.46881,0.14423l14.65253-10.16949   c0.00037-0.00024,0.00079-0.00049,0.00116-0.00079l22.53003-15.63696c0.00079-0.00055,0.00146-0.00104,0.00226-0.00153   l0.58649-0.40704L81.11035,17.15283L49.65039,7.8457z M50.46484,16.9541h-1.26569l1.28229-6.27881l32.19989,23.86212   l-12.86346,3.31934c-0.06506-0.25366-0.22583-0.48224-0.47119-0.62189c-0.48242-0.27246-1.0918-0.104-1.36328,0.37598   l-0.47858,0.84277l-12.33386,3.18268c-0.32544-0.15527-0.72113-0.14008-1.02936,0.09076   c-0.08435,0.06348-0.14362,0.14526-0.20178,0.22693L43.5459,44.63605l2.46533-12.07178l0.12549,0.16718   c0.19629,0.26221,0.49707,0.3999,0.80078,0.3999c0.20898,0,0.41895-0.06494,0.59961-0.2002   c0.44141-0.33154,0.53027-0.9585,0.19922-1.3999l-1.19031-1.58569l2.24469-10.99146h1.67413c0.55273,0,1-0.44775,1-1   S51.01758,16.9541,50.46484,16.9541z M34.20831,20.54413l-0.60187,1.54376c-0.2002,0.51465,0.05371,1.09424,0.56836,1.29492   c0.11914,0.04639,0.24219,0.06885,0.36328,0.06885c0.39941,0,0.77734-0.24219,0.93164-0.63721l1.08984-2.79541   c0.00635-0.01624,0.00317-0.03302,0.00861-0.04938c0.19604,0.23486,0.47461,0.36725,0.7619,0.36725   c0.20898,0,0.41992-0.06543,0.59961-0.2002c0.44141-0.33154,0.53027-0.9585,0.19922-1.40039l-0.4032-0.53711l0.79688-0.53131   c-0.02808,0.09235-0.05774,0.18469-0.05774,0.28619c0,0.55225,0.44727,1,1,1h3c0.55273,0,1-0.44775,1-1s-0.44727-1-1-1h-2.87152   l8.75684-5.83789l-1.20538,5.90253c-0.39325,0.13464-0.67993,0.49658-0.67993,0.93536c0,0.2959,0.13403,0.55469,0.33826,0.73779   L44.73077,28.8399c-0.06592,0.0296-0.13519,0.04779-0.19562,0.09271c-0.44141,0.33154-0.53027,0.9585-0.19922,1.3999l0.0708,0.0943   l-2.90869,14.24359L13.30457,34.48004L34.20831,20.54413z M20.76746,64.74927l1.94934,1.39087   c0.17676,0.12549,0.37891,0.18604,0.58008,0.18604c0.3125,0,0.62012-0.14551,0.81543-0.41895   c0.32031-0.44971,0.21582-1.07422-0.2334-1.39502l-2.44238-1.74268c-0.04431-0.03149-0.09558-0.04034-0.14276-0.06366   c0.01508-0.00317,0.03003-0.00183,0.0451-0.00568l2.9043-0.75098c0.53516-0.13818,0.85645-0.68408,0.71777-1.21875   c-0.1377-0.53516-0.68359-0.85303-1.21777-0.71777l-2.9043,0.75098c-0.53516,0.13818-0.85645,0.68408-0.71777,1.21875   c0.07489,0.29053,0.27631,0.50677,0.52478,0.63171c-0.15851,0.03424-0.3006,0.11499-0.42804,0.22333l-0.6413-2.23077   c0.02484,0.01215,0.04181,0.03351,0.06799,0.0437c0.11914,0.04639,0.24219,0.06885,0.36328,0.06885   c0.39941,0,0.77734-0.24219,0.93164-0.63721l1.08984-2.79492c0.2002-0.51465-0.05371-1.09424-0.56836-1.29492   c-0.51074-0.19922-1.09375,0.05322-1.29492,0.56836l-1.00891,2.58734l-6.55322-22.79456l13.64032,4.93036   c-0.11176,0.10077-0.20813,0.21997-0.26666,0.36963l-1.08984,2.79492c-0.2002,0.51465,0.05371,1.09424,0.56836,1.29492   c0.11914,0.04639,0.24219,0.06885,0.36328,0.06885c0.39941,0,0.77734-0.24219,0.93164-0.63721l1.08984-2.79492   c0.06506-0.1673,0.06708-0.33783,0.04279-0.5036l12.90814,4.66571L28.67102,67.93225l-0.72278-0.51575   c-0.45117-0.32031-1.07422-0.21631-1.39551,0.23291c-0.32031,0.44971-0.21582,1.07422,0.2334,1.39502l0.89343,0.63751   l-3.64478,6.43225L20.76746,64.74927z M57.18207,86.42523l0.36969-2.50775c0.08105-0.54639-0.29688-1.05469-0.84375-1.13525   c-0.54785-0.0835-1.05469,0.29834-1.13477,0.84326l-0.4375,2.96777c-0.01074,0.07471-0.01367,0.14844-0.00781,0.2207   l-1.13281-0.80811c-0.4502-0.32031-1.07422-0.21631-1.39551,0.23291c-0.05353,0.07513-0.078,0.15961-0.10815,0.24231   l-22.11005-6.80286h11.30463l0.56592,0.40381c0.17676,0.12549,0.37891,0.18604,0.58008,0.18604   c0.3125,0,0.62012-0.14551,0.81543-0.41895c0.03772-0.05298,0.05023-0.11383,0.07629-0.1709h13.04688   c0.11163,0.06824,0.23822,0.11597,0.37585,0.13623c0.04883,0.00732,0.09863,0.01074,0.14648,0.01074   c0.1795,0,0.34271-0.06122,0.49109-0.14697h9.11938L57.18207,86.42523z M58.4718,77.67822l0.24695-1.67529   c0.08105-0.54639-0.29688-1.05469-0.84375-1.13525c-0.5498-0.08545-1.05469,0.29785-1.13477,0.84326l-0.28998,1.96729h-14.1236   l-1.35498-0.9668c-0.4502-0.31934-1.07422-0.21631-1.39551,0.23291c-0.15765,0.22137-0.21021,0.48492-0.17157,0.73389H25.44769   l3.87756-6.8429c0.15289,0.08551,0.31677,0.13782,0.48334,0.13782c0.3125,0,0.62012-0.14551,0.81543-0.41895   c0.32031-0.44971,0.21582-1.07422-0.2334-1.39502l-0.08228-0.05872l5.91766-10.44318   c0.11169,0.04254,0.22931,0.06976,0.35211,0.06976c0.08301,0,0.16699-0.01025,0.25098-0.03174l2.90527-0.75098   c0.53516-0.13818,0.85645-0.68359,0.71777-1.21875c-0.1377-0.53516-0.68359-0.85596-1.21777-0.71777l-1.76562,0.45642   l4.94781-8.73163L59,66.95581c-0.53198-0.05603-1.01392,0.30927-1.0918,0.84106l-0.43848,2.96777   c-0.08105,0.54639,0.29688,1.05469,0.84277,1.13525c0.0498,0.00732,0.09863,0.01074,0.14746,0.01074   c0.48828,0,0.91504-0.35693,0.98828-0.854l0.43848-2.96777c0.00574-0.03857-0.00708-0.07391-0.00586-0.112L68.25,77.67822H58.4718z    M91.16711,61.4057l-0.97766-0.36566c-0.5166-0.19482-1.09375,0.06982-1.28711,0.58643   c-0.19336,0.51709,0.06934,1.09326,0.58594,1.28662l1.021,0.38184L72.02271,76.12531l6.05585-17.80475   c0.22992-0.10687,0.42419-0.29089,0.52008-0.54712c0.10364-0.2771,0.06854-0.56647-0.05865-0.80945l6.31775-18.57471   L91.16711,61.4057z M76.75098,56.01508l-1.54883-0.57904c-0.52148-0.19531-1.09277,0.06934-1.28711,0.58643   c-0.19336,0.51709,0.06934,1.09326,0.58594,1.28662l1.60571,0.60034l-6.29742,18.51495L44.05493,46.57056l10.44843-2.69623   l1.24078,1.65204c0.19629,0.26172,0.49707,0.39941,0.80078,0.39941c0.20898,0,0.41992-0.06543,0.59961-0.2002   c0.44141-0.33203,0.53027-0.95898,0.19922-1.40039l-0.74481-0.99164l9.79486-2.52759   c0.03009,0.31323,0.18915,0.60968,0.48315,0.77704c0.15625,0.08838,0.32617,0.13037,0.49316,0.13037   c0.34863,0,0.68652-0.18164,0.87012-0.50635l0.58386-1.0282l14.59406-3.76599L76.75098,56.01508z M76.17804,27.22876   l1.44403-2.54468c0.27246-0.48047,0.10352-1.09082-0.37695-1.36328c-0.47852-0.27295-1.08984-0.10352-1.36328,0.37598   l-1.32324,2.33185L65.0119,18.9541h1.45294c0.55273,0,1-0.44775,1-1s-0.44727-1-1-1h-3c-0.28699,0-0.54138,0.12396-0.72369,0.31726   l-7.78723-5.77069l18.43317,5.45343h-1.92224c-0.55273,0-1,0.44775-1,1s0.44727,1,1,1h3c0.55273,0,1-0.44775,1-1   c0-0.14856-0.03668-0.28662-0.09473-0.41333l3.28632,0.97223c0.03143,0.04541,0.05231,0.09839,0.09064,0.13788l-0.39551,0.69775   c-0.27344,0.47998-0.10449,1.09033,0.375,1.36328c0.15625,0.08838,0.32617,0.13037,0.49316,0.13037   c0.27734,0,0.54523-0.11993,0.73706-0.33154l3.27429,11.94464L76.17804,27.22876z"></path><path fill="#b36ae2" d="M30.17871,33.63135c-0.5127-0.19922-1.09375,0.05322-1.29492,0.56836l-1.08984,2.79492   c-0.2002,0.51465,0.05371,1.09424,0.56836,1.29492c0.11914,0.04639,0.24219,0.06885,0.36328,0.06885   c0.39941,0,0.77734-0.24219,0.93164-0.63721l1.08984-2.79492C30.94727,34.41162,30.69336,33.83203,30.17871,33.63135z"></path><path fill="#b36ae2" d="M60.21094,59.03906c-0.55078-0.08008-1.05566,0.29639-1.13574,0.84326l-0.43848,2.96777   c-0.08105,0.54639,0.29688,1.05469,0.84277,1.13525c0.0498,0.00732,0.09863,0.01074,0.14746,0.01074   c0.48828,0,0.91504-0.35693,0.98828-0.854l0.43848-2.96777C61.13477,59.62793,60.75684,59.11963,60.21094,59.03906z"></path><path fill="#b36ae2" d="M33.08496,26.17773c-0.51172-0.19873-1.09375,0.05322-1.29492,0.56836L30.7002,29.5415   c-0.2002,0.51465,0.05371,1.09424,0.56836,1.29492c0.11914,0.04639,0.24219,0.06885,0.36328,0.06885   c0.39941,0,0.77734-0.24219,0.93164-0.63721l1.08984-2.79541C33.85352,26.95801,33.59961,26.37842,33.08496,26.17773z"></path><path fill="#b36ae2" d="M70.82715,34.62598c0.15625,0.08838,0.32617,0.13037,0.49316,0.13037   c0.34863,0,0.68652-0.18164,0.87012-0.50635l1.48145-2.60889c0.27344-0.47998,0.10449-1.09033-0.375-1.36328   c-0.48242-0.27344-1.0918-0.10449-1.36328,0.37598l-1.48145,2.60889C70.17871,33.74268,70.34766,34.35303,70.82715,34.62598z"></path><path fill="#b36ae2" d="M47.4834,81.3584c-0.4502-0.31982-1.07422-0.21582-1.39551,0.23291   c-0.32031,0.44971-0.21582,1.07422,0.2334,1.39502l2.44238,1.74268c0.17676,0.12549,0.37891,0.18604,0.58008,0.18604   c0.3125,0,0.62012-0.14551,0.81543-0.41895c0.32031-0.44971,0.21582-1.07422-0.2334-1.39502L47.4834,81.3584z"></path><path fill="#b36ae2" d="M55.46484,18.9541h3c0.55273,0,1-0.44775,1-1s-0.44727-1-1-1h-3c-0.55273,0-1,0.44775-1,1   S54.91211,18.9541,55.46484,18.9541z"></path><path fill="#b36ae2" d="M24.36719,48.53857c-0.5127-0.19873-1.09375,0.05371-1.29492,0.56836l-1.08984,2.79492   c-0.2002,0.51465,0.05371,1.09424,0.56836,1.29492c0.11914,0.04639,0.24219,0.06885,0.36328,0.06885   c0.39941,0,0.77734-0.24219,0.93164-0.63721l1.08984-2.79492C25.13574,49.31885,24.88184,48.73926,24.36719,48.53857z"></path><path fill="#b36ae2" d="M34.45996,72.06396c-0.45117-0.31982-1.07422-0.21582-1.39551,0.23291   c-0.32031,0.44971-0.21582,1.07422,0.2334,1.39502l2.44238,1.74268c0.17676,0.12549,0.37891,0.18604,0.58008,0.18604   c0.3125,0,0.62012-0.14551,0.81543-0.41895c0.32031-0.44971,0.21582-1.07422-0.2334-1.39502L34.45996,72.06396z"></path><path fill="#b36ae2" d="M65.39746,44.19189c-0.48242-0.27246-1.0918-0.10498-1.36328,0.37598l-1.48145,2.6084   c-0.27344,0.47998-0.10449,1.09033,0.375,1.36328c0.15625,0.08838,0.32617,0.13037,0.49316,0.13037   c0.34766,0,0.68652-0.18164,0.87012-0.50635l1.48145-2.6084C66.0459,45.0752,65.87695,44.46484,65.39746,44.19189z"></path><path fill="#b36ae2" d="M46.97949,54.00537l-2.9043,0.75098c-0.53516,0.13818-0.85645,0.68408-0.71777,1.21875   c0.11621,0.45068,0.52246,0.75,0.9668,0.75c0.08301,0,0.16699-0.01074,0.25098-0.03223l2.9043-0.75098   c0.53516-0.13818,0.85645-0.68408,0.71777-1.21875C48.05957,54.18848,47.51172,53.86914,46.97949,54.00537z"></path><path fill="#b36ae2" d="M28.83301,60.72949c0.08301,0,0.16699-0.01025,0.25098-0.03174l2.9043-0.75098   c0.53516-0.13818,0.85645-0.68408,0.71777-1.21875c-0.1377-0.53467-0.68262-0.85449-1.21777-0.71777l-2.9043,0.75098   c-0.53516,0.13818-0.85645,0.68408-0.71777,1.21875C27.98242,60.43066,28.38867,60.72949,28.83301,60.72949z"></path><path fill="#b36ae2" d="M54.72461,52.00293l-2.9043,0.75049c-0.53516,0.13818-0.85645,0.68359-0.71777,1.21826   c0.11621,0.45117,0.52246,0.75049,0.9668,0.75049c0.08301,0,0.16699-0.01074,0.25098-0.03223l2.9043-0.75049   c0.53516-0.13818,0.85645-0.68359,0.71777-1.21826C55.80469,52.18555,55.25781,51.86523,54.72461,52.00293z"></path><path fill="#b36ae2" d="M81.99414,60.11133l2.81055,1.05078c0.11621,0.04346,0.23438,0.06396,0.35059,0.06396   c0.40527,0,0.78613-0.24854,0.93652-0.65039c0.19336-0.51709-0.06934-1.09326-0.58594-1.28662l-2.81055-1.05078   c-0.52051-0.19531-1.09375,0.06934-1.28711,0.58643S81.47754,59.91797,81.99414,60.11133z"></path><path fill="#b36ae2" d="M63.02637,50.8833l-1.05414-0.39398l-1.62653-2.16559c-0.33105-0.44141-0.95898-0.5293-1.40039-0.19922   c-0.44141,0.33203-0.53027,0.95898-0.19922,1.40039l0.90436,1.2041l-0.08502,0.02197   c-0.53516,0.13818-0.85645,0.68359-0.71777,1.21826c0.1377,0.53564,0.68555,0.85547,1.21777,0.71826l0.07324-0.01892   l-0.33496,2.26746c-0.08105,0.54639,0.29688,1.05469,0.84277,1.13525c0.0498,0.00732,0.09863,0.01074,0.14746,0.01074   c0.48828,0,0.91504-0.35693,0.98828-0.854l0.37445-2.53473l0.16852,0.06305c0.11621,0.04346,0.23438,0.06396,0.35059,0.06396   c0.40527,0,0.78613-0.24854,0.93652-0.65039C63.80566,51.65283,63.54297,51.07666,63.02637,50.8833z"></path><path fill="#b36ae2" d="M66.42188,53.2207c-0.19336,0.51709,0.06934,1.09326,0.58594,1.28662l2.81055,1.05078   c0.11621,0.04346,0.23438,0.06396,0.35059,0.06396c0.40527,0,0.78613-0.24854,0.93652-0.65039   c0.19336-0.51709-0.06934-1.09326-0.58594-1.28662l-2.81055-1.05078C67.1875,52.44043,66.61523,52.7041,66.42188,53.2207z"></path><path fill="#b36ae2" d="M49.33887,35.33008c-0.44141,0.33154-0.53027,0.9585-0.19922,1.3999l1.80078,2.39941   c0.19629,0.26172,0.49707,0.39941,0.80078,0.39941c0.20898,0,0.41895-0.06494,0.59961-0.2002   c0.44141-0.33154,0.53027-0.9585,0.19922-1.3999l-1.80078-2.39893C50.4082,35.08789,49.7832,34.99854,49.33887,35.33008z"></path><path fill="#b36ae2" d="M42.7334,26.53418c0.44141-0.33154,0.53027-0.9585,0.19922-1.40039l-1.80078-2.39844   c-0.33105-0.44189-0.95605-0.53125-1.40039-0.19971c-0.44141,0.33154-0.53027,0.9585-0.19922,1.40039l1.80078,2.39844   c0.19629,0.26221,0.49707,0.3999,0.80078,0.3999C42.34277,26.73438,42.55273,26.66943,42.7334,26.53418z"></path></g></svg></g></svg>